<?xml version="1.0" encoding="iso-8859-1"?>
<!-- Generator: Adobe Illustrator 19.0.0, SVG Export Plug-In . SVG Version: 6.00 Build 0)  -->
<svg version="1.1" id="Capa_1" xmlns="http://www.w3.org/2000/svg" xmlns:xlink="http://www.w3.org/1999/xlink" x="0px" y="0px"
	 viewBox="0 0 448.479 448.479" style="enable-background:new 0 0 448.479 448.479;" xml:space="preserve">
<g>
	<g>
		<path d="M443.885,205.279c-4.096-61.952-34.816-119.808-83.456-158.208c-48.64-38.4-112.128-54.272-173.568-44.032
			C77.293,21.983-3.091,123.359,4.589,234.975c3.584,53.76,26.112,103.424,64,141.312c-9.728,14.336-18.432,23.552-41.472,41.984
			c-4.608,3.584-6.656,9.216-5.12,14.848c1.024,5.632,5.12,10.24,10.24,11.776c7.68,2.56,18.944,3.584,31.744,3.584
			c27.136,0,61.44-6.144,88.064-19.968c35.328,12.288,73.216,15.36,110.592,8.704C372.205,417.759,451.565,315.871,443.885,205.279z
			 M121.837,260.063c-19.968,0-35.84-15.872-35.84-35.84s15.872-35.84,35.84-35.84c19.968,0,35.84,15.872,35.84,35.84
			S141.805,260.063,121.837,260.063z M224.237,260.063c-19.968,0-35.84-15.872-35.84-35.84s15.872-35.84,35.84-35.84
			s35.84,15.872,35.84,35.84S244.205,260.063,224.237,260.063z M326.637,260.063c-19.968,0-35.84-15.872-35.84-35.84
			s15.872-35.84,35.84-35.84c19.968,0,35.84,15.872,35.84,35.84S346.605,260.063,326.637,260.063z"/>
	</g>
</g>
<g>
</g>
<g>
</g>
<g>
</g>
<g>
</g>
<g>
</g>
<g>
</g>
<g>
</g>
<g>
</g>
<g>
</g>
<g>
</g>
<g>
</g>
<g>
</g>
<g>
</g>
<g>
</g>
<g>
</g>
</svg>
