<svg height="512" viewBox="0 0 56 41" width="512" xmlns="http://www.w3.org/2000/svg"><g id="Page-1" fill="none" fill-rule="evenodd"><g id="037---Sheet" fill="rgb(0,0,0)" fill-rule="nonzero"><path id="Shape" d="m12.5 14h35.5c2.4548827.0007608 4.8227579.9093724 6.648 2.551l-1.767-8.651c-1.0016766-4.59868678-5.0645145-7.8835522-9.771-7.9h-29.22c-4.70914089.01718109-8.77314445 3.30597971-9.772 7.908l-2.318 10.829c.068-.074.126-.154.2-.227 2.72626141-2.8899018 6.52710704-4.5224555 10.5-4.51zm13.5-12c.5522847 0 1 .44771525 1 1s-.4477153 1-1 1-1-.44771525-1-1 .4477153-1 1-1zm-19.927 6.324c.79980471-3.68056965 4.0505565-6.31044737 7.817-6.324h8.11c.5522847 0 1 .44771525 1 1s-.4477153 1-1 1h-8.11c-2.8233976.00973154-5.26042828 1.98098165-5.86 4.74-.09811351.46138442-.50529929.79146747-.977.792-.0702499.00010271-.14031121-.00727216-.209-.022-.25954922-.05496951-.48661666-.2108263-.6312187-.43326212-.14460205-.22243583-.19488538-.49321719-.1397813-.75273788z"/><path id="Shape" d="m52.307 34h-39.807c-1.5532775-.001539-3.03364677-.6590842-4.07616073-1.8105346s-1.55017753-2.6896755-1.39783927-4.2354654c.35763567-2.8532638 2.7985714-4.9844579 5.674-4.954h35.3c.5522847 0 1 .4477153 1 1s-.4477153 1-1 1h-35.3c-1.8489921-.0383106-3.43298522 1.3155885-3.683 3.148-.09792561.9842647.22458628 1.9640852.88797832 2.6977591.66339208.7336739 1.60589858 1.1528918 2.59502168 1.1542409h35.5c4.418278 0 8-3.581722 8-8s-3.581722-8-8-8h-35.5c-3.42352058.0037563-6.69599692 1.4100536-9.05489462 3.8912043-2.3588977 2.4811508-3.59819055 5.8204511-3.42910538 9.2397957.43819608 6.7578832 6.10485719 11.9813688 12.876 11.869h39.608c.9859721-.0012742 1.9259439-.4171845 2.59-1.146.6692791-.7313562.9942165-1.7138095.893-2.7-.2435333-1.8339517-1.8263396-3.191996-3.676-3.154z"/></g></g></svg>