<svg id="Capa_1" enable-background="new 0 0 512 512" height="512" viewBox="0 0 512 512" width="512" xmlns="http://www.w3.org/2000/svg"><g><path d="m136 30h15v92h90v-30h-15c-8.28 0-15-6.72-15-15s6.72-15 15-15h60c8.28 0 15 6.72 15 15s-6.72 15-15 15h-15v30h90v-92h15c8.284 0 15-6.716 15-15s-6.716-15-15-15h-240c-8.284 0-15 6.716-15 15s6.716 15 15 15z"/><path d="m241 317c0 8.27 6.73 15 15 15s15-6.73 15-15c0-6.724-3.31-8.7-15-30-11.935 21.746-15 23.299-15 30z"/><path d="m376 152h-240c-24.81 0-45 20.19-45 45v210c0 24.81 20.19 45 45 45h240c24.81 0 45-20.19 45-45v-210c0-24.81-20.19-45-45-45zm-120 210c-24.81 0-45-20.19-45-45 0-19.472 10.518-27.477 32.01-67.5 2.68-4.64 7.63-7.5 12.99-7.5s10.31 2.86 12.99 7.5c21.695 40.401 32.01 48.046 32.01 67.5 0 24.81-20.19 45-45 45z"/><path d="m136 482c-5.13 0-10.15-.52-15-1.51v16.51c0 8.28 6.72 15 15 15h240c8.28 0 15-6.72 15-15v-16.51c-4.85.99-9.87 1.51-15 1.51z"/></g></svg>