<svg height="466pt" viewBox="-12 0 466 466.04206" width="466pt" xmlns="http://www.w3.org/2000/svg"><path d="m313.972656 56.507812 52 44.042969v-96.515625h-52zm0 0"/><path d="m278.972656 428.035156h2.445313c-.675781-1.769531-1.492188-3.476562-2.445313-5.109375zm0 0"/><path d="m244.171875 328.035156h-46.398437c-6.101563.039063-11.933594 2.507813-16.210938 6.855469s-6.648438 10.21875-6.589844 16.320313v76.824218h92v-76.824218c.054688-6.101563-2.316406-11.972657-6.59375-16.320313s-10.109375-6.816406-16.207031-6.855469zm0 0"/><path d="m278.972656 361.160156c13-32.199218 43.597656-55.117187 80.132813-55.117187 9.132812-.042969 18.210937 1.429687 26.867187 4.355469v-78.976563c-1-.839844-2.179687-1.742187-3.332031-2.71875l.132813-.101563s.003906-.007812 0-.011718l-147.519532-125.96875c-8.15625-7.035156-20.230468-7.035156-28.382812 0l-147.425782 125.96875c-1.203124 1.023437-2.472656 1.964844-3.472656 2.835937v156.125c-.097656 10.6875 4.070313 20.96875 11.582032 28.570313 7.511718 7.597656 17.746093 11.886718 28.433593 11.914062h66.984375v-76.824218c-.054687-9.28125 3.582032-18.203126 10.109375-24.800782 6.527344-6.597656 15.410157-10.332031 24.691407-10.375h46.398437c19.328125.09375 34.910156 15.847656 34.800781 35.175782zm0 0"/><path d="m430.984375 172.023438-195.8125-166.769532c-8.171875-7.003906-20.230469-7.003906-28.398437 0l-195.816407 166.78125c-13.050781 11.152344-14.648437 30.753906-3.574219 43.871094l-4.484374 3.988281 4.5625-3.898437c11.1875 13.074218 30.847656 14.625 43.945312 3.46875l147.550781-125.96875c12.65625-10.890625 31.371094-10.890625 44.027344 0l147.542969 125.960937.078125.066407c13.125 11.066406 32.726562 9.441406 43.847656-3.640626 11.117187-13.078124 9.566406-32.6875-3.46875-43.859374zm0 0"/><path d="m359.484375 318.042969c-40.871094 0-74 33.128906-74 74 0 40.867187 33.128906 74 74 74 40.867187 0 74-33.132813 74-74-.046875-40.851563-33.152344-73.953125-74-74zm0 67.269531c13.253906 0 24.375 9.996094 25.785156 23.171875 1.410157 13.179687-7.34375 25.300781-20.296875 28.105469v8.445312c0 3.3125-2.6875 6-6 6-3.316406 0-6-2.6875-6-6v-8.683594c-11.429687-2.980468-19.410156-13.292968-19.425781-25.105468 0-3.3125 2.6875-6 6-6 3.316406 0 6 2.6875 6 6 0 7.695312 6.238281 13.9375 13.933594 13.9375 7.695312 0 13.9375-6.238282 13.9375-13.933594 0-7.699219-6.238281-13.9375-13.933594-13.9375-13.054687 0-24.074219-9.703125-25.726563-22.652344-1.652343-12.949218 6.578126-25.105468 19.214844-28.386718v-6.238282c0-3.316406 2.683594-6 6-6 3.3125 0 6 2.683594 6 6v6c11.921875 2.597656 20.425782 13.140625 20.445313 25.34375 0 3.3125-2.6875 6-6 6-3.316407 0-6-2.6875-6-6 0-7.695312-6.238281-13.933594-13.933594-13.933594-7.699219 0-13.9375 6.238282-13.9375 13.933594 0 7.695313 6.238281 13.933594 13.9375 13.933594zm0 0"/></svg>