<?xml version="1.0"?>
<svg xmlns="http://www.w3.org/2000/svg" viewBox="0 0 512 512" width="512" height="512"><g id="Solid"><path d="M328,160a118.653,118.653,0,0,0-76.119,27.2l22.406,3.734a103.984,103.984,0,0,1,132.9,21.673L420.008,203A120.5,120.5,0,0,0,328,160Z"/><rect x="208" y="64" width="48" height="16"/><path d="M176,184h55.684a135.976,135.976,0,0,1,206.123,15.767,136.03,136.03,0,0,1,7.488,149.09A136.13,136.13,0,0,1,288,410.009V448H480V128H176Z"/><path d="M448,280a118.952,118.952,0,0,0-18.556-64.081L392,244v56l43.759,32.818A119.981,119.981,0,0,0,448,280Z"/><path d="M318.656,316.438a8,8,0,0,1-10.234,2.717L288,308.944v49.444a88.021,88.021,0,0,0,114.059-30.844L379.2,310.4A8,8,0,0,1,376,304V240a8,8,0,0,1,3.2-6.4l15.167-11.375a88.059,88.059,0,0,0-103.061-22.233l58.351,58.351a8,8,0,0,1,1,10.095Z"/><path d="M288,393.166a120.1,120.1,0,0,0,139.7-46.393l-12.813-9.61A104.054,104.054,0,0,1,288,376.015Z"/><path d="M176,112H480V32H176ZM440,48a24,24,0,1,1-24,24A24.028,24.028,0,0,1,440,48ZM384,64h16V80H384Zm-32,0h16V80H352Zm-32,0h16V80H320Zm-32,0h16V80H288Zm-96-8a8,8,0,0,1,8-8h64a8,8,0,0,1,8,8V88a8,8,0,0,1-8,8H200a8,8,0,0,1-8-8Z"/><path d="M184,256a56,56,0,0,1-55.983-54.558l-36.175,6.03L33.978,265.336,58.45,308.163,80,292V256H96V480H272V464H112V448H272V256h16v35.056l21.261,10.631,24.445-36.667-57.55-57.55-36.175-6.03A56.066,56.066,0,0,1,184,256Z"/><path d="M155.716,228.283A40,40,0,0,0,224,200H144A39.74,39.74,0,0,0,155.716,228.283ZM168,208h32v16H168Z"/><circle cx="440" cy="72" r="8"/></g></svg>
